<svg xmlns="http://www.w3.org/2000/svg" xmlns:xlink="http://www.w3.org/1999/xlink" viewBox="0 0 163.5 147.29"><defs><filter id="filter" x="-6" y="-9.55" width="175.68" height="261.84" filterUnits="userSpaceOnUse"><feOffset input="SourceAlpha"/><feGaussianBlur stdDeviation="2" result="blur"/><feFlood flood-color="#665854"/><feComposite operator="in" in2="blur"/><feComposite in="SourceGraphic"/></filter><clipPath id="clip-path"><rect y="-3.55" width="163.5" height="249.71" fill="none"/></clipPath></defs><g id="OBJECTS"><rect y="-3.55" width="163.5" height="249.71" fill="#acdfe5" filter="url(#filter)"/><path d="M163.5-3.55h-69c-.65.24-1.3.47-1.94.74C79.76,2.5,71.3,13.51,62.08,23.24A96.28,96.28,0,0,1,45.93,37.12a79.85,79.85,0,0,1-20.76,9.45,74,74,0,0,1-21.3,3.27c-1.21,0-2.52,0-3.87,0V99.69c11.19,1,22.31,3.17,33.61,2.32A71.13,71.13,0,0,0,71.55,87.72C82.16,79.5,90.06,68.38,98.09,57.79c9-11.82,19.52-21.89,34-26.29,6.54-2,13.53-2.22,20.32-1.91,2.9.13,5.78.54,8.67.77.78.07,1.58.14,2.38.24Z" fill="#bbecef"/><path d="M118.52,12.43c0-3.87-7.31-7.32-9.86-4.38C104.41.24,89-1.07,86.42,8.44c-1.86-1.94-7-1.88-7.08.91a14.77,14.77,0,0,0-8.22-2.79c-3.62-.1-9.33,2.84-9.9,6.82-.93-3.26-8.09,2-6,5.59.53.92,2,1,2.88,1.07,2.59.18,5.26,0,7.87.07,6.76.26,13.55.25,20.31.28s13.34-.17,20-.44c5.17-.2,11.36.64,16.2-1.66,2.65-1.26,4.69-4.36,2.06-6.66C122.84,10.16,120.45,11.17,118.52,12.43Z" fill="#fff"/><path d="M49.3,80a2.94,2.94,0,0,0-.68-2.34,5,5,0,0,0-4.15-1.56,11,11,0,0,0-2.06-4.36c-1.81-2.26-5.32-2.76-8-3-5.24-.41-11.39.52-13.87,5.53-1.36-1.55-4.61-2.18-5.59-.43-.65-3.76-5.34-6.4-8.59-7.39A10,10,0,0,0,0,66.55V87.69c3.13,0,6.26-.15,9.38-.16,11.13,0,22.11-.51,33.19-1.46,2.9-.24,8.09-.44,9.48-3.59C52.75,80.91,50.86,80.21,49.3,80Z" fill="#fff"/><path d="M163.5,121a3,3,0,0,0-2.28.22c-1.64-3.24-6.07-5.33-9.6-6a15.15,15.15,0,0,0-9,1,8.91,8.91,0,0,0-5.23,6.22c-1.84-3.17-7.63-2.52-9.21.76a19.67,19.67,0,0,0-7-1.4c-4.49-.16-8.72,2.78-9.31,7.31-2-.09-4.27,0-4.29,2.59,0,2,3.24,2.51,4.64,2.7a77.89,77.89,0,0,0,9,.33c6.1.14,12.2,0,18.29-.05,5.73-.05,11.44-.11,17.16-.45,2.25-.13,4.51-.34,6.76-.53Z" fill="#fff"/><path d="M163.5,61.69a61.51,61.51,0,0,0-10.94,1.71A89,89,0,0,0,122.18,77C112,83.91,102.36,91.37,91.83,97.74a69.21,69.21,0,0,1-16.47,6.89c-2.76.8-5.56,1.46-8.36,2.07a51.53,51.53,0,0,1-8.85,1.6.3.3,0,0,0-.28.37c.33,1.31.68,2.62,1.09,3.92a.27.27,0,0,0,.26.19c3.36-.27,6.66.67,10,1.09,4.18.54,8.49.5,12.69.79a57.9,57.9,0,0,0,21.92-3.07c12.56-4.12,23.5-11.73,35.33-17.43a60.43,60.43,0,0,1,20-6.09,24.21,24.21,0,0,1,4.4.09Z" fill="#bbecef"/><path d="M138.84,189.93c-2.51-9.25-6.28-18.21-9.61-27.19s-6.35-18-9.68-27c-3-7.94-5.59-15.82-7.83-24-1.86-6.77-4.12-13.66-8.59-19.18a1.44,1.44,0,0,0-2.27.29c-6.59,12.43-10.34,25.93-14.3,39.35-2.12,7.19-4.35,14.32-7,21.33-2.79,7.46-6.73,14.41-8.84,22.11-.22.81,1,1.4,1.39.59h0c2.82,5.46,28,11.58,29.35,11.94,9,2.4,17.81,3.53,27.08,4.56,1.74.2,8.08,1.43,8.85-1.2A1.26,1.26,0,0,0,138.84,189.93Z" fill="#289084"/><path d="M106.86,121.31c-.13-4.26-1.71-8.7-1.39-13,2.32,4.88,4.06,11.41,9.21,13.36-1.05-3.27-2.05-6.55-3-9.89-1.86-6.77-4.12-13.66-8.59-19.18a1.44,1.44,0,0,0-2.27.29,118.63,118.63,0,0,0-5.47,12,23.66,23.66,0,0,0,.57,6c1.13,4.73,3.66,1.34,5.38-.46,1.45,3.61,2.2,7.43,3.42,11.12A1.07,1.07,0,0,0,106.86,121.31Z" fill="#fff"/><path d="M115.59,137.83c-1.49-4.42-4-8.58-4.81-13.18,0-.15-.27-.11-.26,0,.33,4.69,2.75,9,4.29,13.35,1.67,4.76,2.8,9.71,4.77,14.36.1.21.43.06.38-.16C118.66,147.4,117.2,142.57,115.59,137.83Z" fill="#1e6b60"/><path d="M97.21,116.33c-2.4,5.46-2.7,11.87-3.84,17.69a.25.25,0,0,0,.49.13c2.25-5.52,2.32-11.86,3.83-17.62C97.77,116.25,97.33,116,97.21,116.33Z" fill="#1e6b60"/><path d="M92.49,137.25c-.66,1.8-.91,3.74-1.47,5.58-.09.29.32.43.47.2,1.09-1.67,1-3.77,1.5-5.65A.26.26,0,0,0,92.49,137.25Z" fill="#1e6b60"/><path d="M100.32,126.74a.24.24,0,0,0-.48,0c-.12,5.78-2.52,11.11-3.25,16.78-.87,6.86-2.16,13.64-3.17,20.47,0,.25.33.37.39.11a148.59,148.59,0,0,0,3.41-18.73C98,139.21,100.85,133,100.32,126.74Z" fill="#1e6b60"/><g clip-path="url(#clip-path)"><path d="M53.4,175.13c-1.72-7.7-5.32-15-8.09-22.41-2.91-7.75-6.38-15.33-9-23.17-2.35-7-4-13.91-7.11-20.61a80.91,80.91,0,0,1-4.24-10.82c-.72-2.41-1.36-4.59-3.24-6.35a1.61,1.61,0,0,0-2.5.33c-3.3,5.4-4.86,11.53-7.09,17.4-2.74,7.16-6,14.11-8.79,21.23-3.23,8.17-7,16-10.77,24-1.78,3.75-4.22,7.61-5.53,11.68a.87.87,0,0,0-1.43-.08c-2,2.83-3.38,8.63-.48,11.45,1.89,1.85,4,1.95,6.56,1.91,4.26-.08,8.42-.38,12.69-.24,8.45.28,16.91.64,25.37.87,7.63.2,15.48-.34,22.61-3.28A1.56,1.56,0,0,0,53.4,175.13Z" fill="#289084"/><path d="M29.18,108.94a80.91,80.91,0,0,1-4.24-10.82c-.72-2.41-1.36-4.59-3.24-6.35a1.61,1.61,0,0,0-2.5.33c-3.3,5.4-4.86,11.53-7.09,17.4-.16.41-.33.81-.49,1.22a31.52,31.52,0,0,0,.41,6c.1.58.77.68,1.22.49,2.94-1.27,3.75-4.51,5.43-7,.83,4.85-.72,9.83,1.52,14.49a.87.87,0,0,0,1.58-.21C22.54,119.3,22,114,23,108.85c1.86,3.68,3.72,8.1,7.64,9.6a.86.86,0,0,0,1.07-.6c.12-.59.19-1.18.26-1.76A75.72,75.72,0,0,0,29.18,108.94Z" fill="#fff"/><path d="M11.55,120.83c-2.28,7.37-5.93,14.32-8,21.72-.06.2.24.34.34.15,3.32-6.81,6.46-14.35,7.88-21.8A.12.12,0,0,0,11.55,120.83Z" fill="#1e6b60"/><path d="M35,142.18a136.76,136.76,0,0,0-5.3-14.65c-.09-.2-.38,0-.33.14,1.23,5,3.2,9.86,4.84,14.73,1.72,5.16,3.16,10.46,5.12,15.53a.21.21,0,0,0,.4-.11A140.69,140.69,0,0,0,35,142.18Z" fill="#1e6b60"/><path d="M27.49,132.25c0-.29-.55-.22-.52.07.28,2.72,1.37,5.29,1.82,8,0,.26.4.16.42-.06C29.51,137.48,28,134.93,27.49,132.25Z" fill="#1e6b60"/></g><path d="M94.76,152.24c-3.43-11-7.1-21.81-10.09-32.93C82,109.43,78.16,99.93,75,90.23c-2.51-7.57-5-15.31-10.48-21.3a1.57,1.57,0,0,0-2.2,0,17.45,17.45,0,0,0-4,7c-1.49,4.29-3.5,8.38-4.95,12.7-3.15,9.31-6.7,18.44-10.19,27.62-3.56,9.37-6.35,19-10,28.34-3.15,8.14-7.39,16-9.69,24.51a.94.94,0,0,0-1.5.31,26,26,0,0,1-1.45,3.24,1.38,1.38,0,0,0,.21,1.62c3.19,3.27,7.71,3.36,12,3.44,7,.14,14.19.94,21.22,1.52,7.52.61,15,1.82,22.5,2.57,3.63.36,7.23.45,10.87.53,4.1.1,8.91-1.4,12.85-.46.89.21,2.15-.46,2-1.54C101,170.75,97.63,161.44,94.76,152.24Z" fill="#49b3b6"/><path d="M75,90.23c-2.51-7.57-5-15.31-10.48-21.3a1.57,1.57,0,0,0-2.2,0,17.45,17.45,0,0,0-4,7c-1.49,4.29-3.5,8.38-4.95,12.7l-.28.78a8.2,8.2,0,0,0,.65,2.85.93.93,0,0,0,1.46.19c2.34-2.33,3.78-5.24,5.68-7.87a117.66,117.66,0,0,1,0,13.8c-.11,3.25-.41,7.38,1.69,10.13a1,1,0,0,0,1.74-.23A62.27,62.27,0,0,0,66.13,95.6c.23-3.47-.59-7.36.59-10.71,1.65,3.59,2.65,7.46,4.39,11a.86.86,0,0,0,1.6-.44,40.48,40.48,0,0,1,.14-6.33,17,17,0,0,1,2.76,3C75.39,91.52,75.16,90.88,75,90.23Z" fill="#fff"/><path d="M55.58,96.4c-2.65,5.15-3.13,11.22-4.69,16.74-1,3.4-1.84,6.82-2.74,10.24-1,3.71-2.3,7.44-2.93,11.23,0,.24.31.44.43.18,2.88-6,4-13.13,5.68-19.54,1.64-6.2,2.59-12.62,4.57-18.72A.17.17,0,0,0,55.58,96.4Z" fill="#3c9696"/><path d="M43.93,137.81c-.3.86-.55,1.75-.84,2.61a7.19,7.19,0,0,0-.57,2.77c0,.26.4.42.53.14a21,21,0,0,0,.93-2.66,9.79,9.79,0,0,0,.64-2.77C44.64,137.49,44.06,137.45,43.93,137.81Z" fill="#3c9696"/><path d="M73.08,98.84a.32.32,0,0,0-.63,0c-.09,4.37,1.66,8.9,3.62,12.76.14.28.51.07.47-.2C75.87,107.08,73.47,103.26,73.08,98.84Z" fill="#3c9696"/><path d="M84.09,137.7c-1.27-4-2.34-8.14-3.44-12.24-.49-1.82-.93-3.67-1.55-5.45s-1.55-3.08-2-4.79c-.08-.33-.54-.18-.49.13a13.76,13.76,0,0,0,1.13,3.59,45.25,45.25,0,0,1,2,6.77c1.07,4.11,2.17,8.2,3.44,12.25,2.52,8,4.75,16.17,7.58,24.09a.23.23,0,0,0,.45-.12C89.47,153.71,86.61,145.7,84.09,137.7Z" fill="#3c9696"/><path d="M74.31,126.83c-.65-2.71-1.39-5.34-1.83-8.1a21.52,21.52,0,0,0-2.16-7.38c-.13-.22-.51-.07-.42.18A40.34,40.34,0,0,1,71.52,119c.43,2.77,1.11,5.41,1.79,8.12,1.57,6.3,2.13,13,4.57,19.06a.18.18,0,0,0,.34-.09C77.25,139.64,75.82,133.17,74.31,126.83Z" fill="#3c9696"/><path d="M56.06,114.7c0-.34-.59-.48-.65-.09-.51,3.58-1.69,7.08-2,10.66a.3.3,0,0,0,.55.15C55.3,122.19,56.4,118.24,56.06,114.7Z" fill="#3c9696"/><path d="M52,20.88c-9.32-5.48-26.39-1.79-30.85,8.72a34.72,34.72,0,0,0-1.95,4.67c-2.62,7.71,0,17.21,5.26,23.14,8.95,10.18,26.14,8.19,34.46-1.53C68,45.2,63.51,27.67,52,20.88Z" fill="#fdda9b"/><path d="M53.1,65.93a15.42,15.42,0,0,0-1.62-3.06c-.17-.21-.53,0-.45.26A30.81,30.81,0,0,0,52.24,66a8.53,8.53,0,0,0,1.83,3c.11.1.33,0,.27-.16A24.49,24.49,0,0,0,53.1,65.93Z" fill="#fce6c3"/><path d="M68.19,66.24a49.62,49.62,0,0,0-4.51-3.39c-1.81-1.29-3.4-2.78-5.1-4.19-.17-.14-.47,0-.33.26a16.7,16.7,0,0,0,4,3.81A37.27,37.27,0,0,0,68,66.47C68.15,66.54,68.32,66.35,68.19,66.24Z" fill="#fce6c3"/><path d="M26.75,20.1c-1.94-3.19-5.39-5.82-8.4-7.94-.12-.09-.28.08-.2.19,2.25,3.06,5.68,5.22,8.29,8C26.59,20.5,26.86,20.29,26.75,20.1Z" fill="#fce6c3"/><path d="M20.25,54.12c-1.65,1.24-3.58,2-5.22,3.26-.27.2-.12.71.24.58a12.35,12.35,0,0,0,5.33-3.39C20.79,54.34,20.53,53.91,20.25,54.12Z" fill="#fce6c3"/><path d="M60.79,15.61c-2,1.67-2.84,4.35-5,5.9-.23.16-.09.61.2.49a6.51,6.51,0,0,0,2.59-2.18,20.89,20.89,0,0,0,2.55-4A.21.21,0,0,0,60.79,15.61Z" fill="#fce6c3"/><path d="M78,39.54a43.65,43.65,0,0,0-13.06.08c-.34.05-.2.51.08.55a43.46,43.46,0,0,0,13-.31A.17.17,0,0,0,78,39.54Z" fill="#fce6c3"/><path d="M16.73,41.38c-1.88,0-4-.21-5.73.6a.26.26,0,0,0,.13.49c1.81-.13,4.1.32,5.73-.63A.25.25,0,0,0,16.73,41.38Z" fill="#fce6c3"/><path d="M25.24,59.6c-.75.91-1.49,1.82-2.29,2.69a6.63,6.63,0,0,0-1.83,2.63.25.25,0,0,0,.37.29,12.78,12.78,0,0,0,2.39-2.48,6.66,6.66,0,0,0,1.78-2.89C25.71,59.62,25.41,59.39,25.24,59.6Z" fill="#fce6c3"/><path d="M45.15,64.6a.23.23,0,0,0-.46,0,27.79,27.79,0,0,0,.51,8.58.31.31,0,0,0,.61-.08C45.69,70.28,45.46,67.41,45.15,64.6Z" fill="#fce6c3"/><path d="M32.09,63.76c-.73,3.49-2.25,6.9-2.37,10.5a.33.33,0,0,0,.65.09c.83-3.48,2.07-6.94,2.28-10.52A.29.29,0,0,0,32.09,63.76Z" fill="#fce6c3"/><path d="M36.15,65.18a.31.31,0,0,0-.61,0,12.74,12.74,0,0,0-.4,2.51.32.32,0,0,0,.59.16A5,5,0,0,0,36.15,65.18Z" fill="#fce6c3"/><path d="M67,53.49A8.57,8.57,0,0,0,63.53,52a.27.27,0,0,0-.18.51,8.4,8.4,0,0,0,3.58,1.25C67.05,53.75,67.15,53.58,67,53.49Z" fill="#fce6c3"/><path d="M74.34,48.49c-3.26-1.05-6.77-1.88-10.19-1.33-.29.05-.22.54.08.53,3.38-.12,6.68,1.13,10,1.38C74.61,49.09,74.64,48.59,74.34,48.49Z" fill="#fce6c3"/><path d="M69.48,44.56a8.76,8.76,0,0,0-4.18-.72c-.34.06-.26.62.08.6,1.39-.06,2.73.86,4.1.44A.17.17,0,0,0,69.48,44.56Z" fill="#fce6c3"/><path d="M18.59,50.27c-3.45,1.2-7.5,2.06-10.5,4.24-.25.18-.11.63.22.53a57.75,57.75,0,0,0,10.48-4.31C19,50.59,18.87,50.17,18.59,50.27Z" fill="#fce6c3"/><path d="M17.05,45.06a19.5,19.5,0,0,0-2.72.63c-.61.22-1.41.43-1.63,1.1a.18.18,0,0,0,.12.22c.68.17,1.4-.34,2-.57.78-.29,1.56-.61,2.34-.91A.24.24,0,0,0,17.05,45.06Z" fill="#fce6c3"/><path d="M16.73,36.1C15.5,36,14.27,36,13,35.9c-1.41-.08-2.81-.38-4.23-.44a.18.18,0,0,0-.09.34c2.25,1.27,5.52,1.18,8,.93A.32.32,0,0,0,16.73,36.1Z" fill="#fce6c3"/><path d="M18.36,32.62c-1.08-.39-2.65-1-3.8-.62a.18.18,0,0,0,0,.32,4.47,4.47,0,0,0,1.77.51,18,18,0,0,1,1.9.43C18.6,33.38,18.76,32.76,18.36,32.62Z" fill="#fce6c3"/><path d="M20.18,28.79a25.46,25.46,0,0,0-4.92-2.4A38.78,38.78,0,0,1,8.73,23.1c-.17-.11-.42.12-.29.3,2.54,3.51,7.85,3.9,11.4,6A.33.33,0,0,0,20.18,28.79Z" fill="#fce6c3"/><path d="M21.65,24.89c-1.22-.47-2.22-1.55-3.5-1.84-.23-.05-.44.24-.24.41a10.63,10.63,0,0,0,3.56,2.08C21.89,25.69,22.05,25,21.65,24.89Z" fill="#fce6c3"/><path d="M31.11,18.29,30.26,17a12.42,12.42,0,0,0-.81-1.23A.24.24,0,0,0,29,16a5.47,5.47,0,0,0,1.55,2.75C30.83,19,31.33,18.6,31.11,18.29Z" fill="#fce6c3"/><path d="M36.19,17.2c-.34-.84-.73-1.65-1.13-2.47s-.81-2-1.35-2.94a.22.22,0,0,0-.4.11c-.08,1.89,1.4,4,2.22,5.58C35.71,17.85,36.35,17.59,36.19,17.2Z" fill="#fce6c3"/><path d="M40.29,11.81a40.86,40.86,0,0,0-.18-5.19c0-.21-.39-.21-.43,0a26.52,26.52,0,0,0-.34,4.45c0,1.88.48,3.8.25,5.65-.05.36.51.41.61.09C40.7,15.18,40.35,13.48,40.29,11.81Z" fill="#fce6c3"/><path d="M45.12,12.23a.21.21,0,0,0-.41,0,10.34,10.34,0,0,0-.33,2.16c-.11.75-.2,1.5-.34,2.25a.31.31,0,0,0,.6.17C45.11,15.51,45.6,13.58,45.12,12.23Z" fill="#fce6c3"/><path d="M56.87,9.65A44.51,44.51,0,0,0,54,14c-.92,1.55-1.31,3.34-2.27,4.86-.23.36.32.8.59.46,1-1.3,1.41-2.84,2.17-4.28.92-1.73,2.22-3.3,2.82-5.19C57.42,9.55,57,9.44,56.87,9.65Z" fill="#fce6c3"/><path d="M62,24c-.9.53-1.7,1.25-2.55,1.87a.32.32,0,0,0,.32.55c1-.47,2.25-1,2.59-2.14A.25.25,0,0,0,62,24Z" fill="#fce6c3"/><path d="M72.08,25.57a25.78,25.78,0,0,0-4.33,1.66C66,28,64.1,28.6,62.31,29.35a.36.36,0,0,0,.18.66,22.71,22.71,0,0,0,9.77-4A.24.24,0,0,0,72.08,25.57Z" fill="#fce6c3"/><path d="M67.7,32.08a13.79,13.79,0,0,0-1.54.37,7,7,0,0,1-1.93.19.3.3,0,0,0-.08.59,4.84,4.84,0,0,0,3.69-.63C68,32.46,68,32.05,67.7,32.08Z" fill="#fce6c3"/><path d="M73,35.55c-2.29-.4-4.72.53-7,.52-.45,0-.43.64,0,.69a22.51,22.51,0,0,0,7-.64C73.26,36.06,73.28,35.6,73,35.55Z" fill="#fce6c3"/><path d="M41.16,65.76a.3.3,0,0,0-.59,0,42.63,42.63,0,0,0,0,8.3.31.31,0,0,0,.61,0A43.43,43.43,0,0,0,41.16,65.76Z" fill="#fce6c3"/><path d="M56.08,63.41c-.33-.5-.68-1-1-1.48a.32.32,0,0,0-.55.32,15.12,15.12,0,0,0,.91,1.56,3.48,3.48,0,0,0,1,1.2.25.25,0,0,0,.37-.21A2.82,2.82,0,0,0,56.08,63.41Z" fill="#fce6c3"/><path d="M68.45,61.22a9.32,9.32,0,0,0-3-2.34,18.9,18.9,0,0,1-4-3c-.27-.26-.64.07-.5.39A7.46,7.46,0,0,0,63.92,59c1.39.86,2.81,1.7,4.26,2.45C68.34,61.57,68.57,61.39,68.45,61.22Z" fill="#fce6c3"/><path d="M106.86,121.31c-.13-4.26-1.71-8.7-1.39-13,2.32,4.88,4.06,11.41,9.21,13.36-1.05-3.27-2.05-6.55-3-9.89-1.86-6.77-4.12-13.66-8.59-19.18a1.44,1.44,0,0,0-2.27.29,118.63,118.63,0,0,0-5.47,12,23.66,23.66,0,0,0,.57,6c1.13,4.73,3.66,1.34,5.38-.46,1.45,3.61,2.2,7.43,3.42,11.12A1.07,1.07,0,0,0,106.86,121.31Z" fill="#fff"/><g clip-path="url(#clip-path)"><path d="M65.61,146.14s0,0,0,0c-9.15,12.8-7.57,32.66-7.18,47.55.25,9.32.67,18.7-.19,28-.93,9.94-5.26,19.79-8.6,29.1-.12.34,1.66.83,1.83.53,4.21-7.58,6.62-15.36,8.58-23.87s1.38-17.56,1.14-26.17C60.66,182.62,59.84,164.16,65.61,146.14Z" fill="#4c6031"/><path d="M84.24,147.29a18,18,0,0,0-4.82-.86,34.42,34.42,0,0,0,4.43-1.65c2.36-1.07,9.31-5,6.71-8.79-3.4-4.92-9.8-3.84-14.38-1.42A20.84,20.84,0,0,0,74,135.9a22.21,22.21,0,0,0,1.31-2.63c1.6-3.91,3.75-11-1-13.52-4.35-2.3-7.51,4.39-8.68,7.22a32.93,32.93,0,0,0-2.14,8.61,61.8,61.8,0,0,0-1.79-6c-.92-2.6-3.85-6.3-6.91-6.3-4.06,0-4.65,5.74-4.42,8.63a25.9,25.9,0,0,0,2,6.93l-.69-.08c-4.62-.41-9.43,1.09-11.53,5.47-3.71,7.72,6.54,7.34,14.73,5.6a27.48,27.48,0,0,0-4.37,8.36c-.81,2.26-2,6.26-.57,8.56,1.3,2.1,3.14,2.71,5.16,1.17,2.62-2,4.32-6.06,5.61-9,.08,2.24.29,4.41.48,6.31s2.79,10.38,6.44,8.14c3-1.83,3.62-6.87,3.53-10.08-.05-1.59-.1-3.4-.24-5.28,4.07,6.24,9.25,12.21,12.24,7.66,1.94-2.95-1.46-6.53-3.33-8.58-.31-.34-.64-.67-1-1l.84.35c3,1.24,9.37,2,10.25-2.31C90.58,151.19,86.61,148.1,84.24,147.29Z" fill="#fde3da"/><path d="M61.31,146.25c-2.05,3-3.5,6.65-5.28,9.85-1.55,2.77-3.23,6.05-3.38,9.28,0,.13.19.14.23,0a65,65,0,0,1,4.47-10.53,71.69,71.69,0,0,0,4.11-8.57C61.5,146.22,61.36,146.17,61.31,146.25Z" fill="#fff"/><path d="M62.85,143.11c-3.78-.18-7.55-.14-11.33,0-3.14.12-6.55.06-9.55,1.11a.12.12,0,0,0,.06.23c6.85-1.14,13.91-.9,20.82-1.24C62.91,143.2,62.91,143.11,62.85,143.11Z" fill="#fff"/><path d="M63.14,145.69a115.47,115.47,0,0,0-21.27.87c-.15,0-.1.23,0,.25,3.26.31,6.59-.5,9.85-.58,3.8-.1,7.62.16,11.39-.32A.11.11,0,0,0,63.14,145.69Z" fill="#fff"/><path d="M71.69,122a60.87,60.87,0,0,0-4.24,9.56c-1.31,3.56-3.33,7.36-3.26,11.24a.13.13,0,0,0,.25,0,159.38,159.38,0,0,1,7.39-20.74C71.87,122,71.74,121.88,71.69,122Z" fill="#fff"/><path d="M74.49,122.34c-2,3.43-3.29,7.35-4.83,11s-3.45,7.39-4,11.36a.13.13,0,0,0,.25.07c1.44-3.74,2.76-7.49,4.31-11.19s3.22-7.33,4.5-11.13A.13.13,0,0,0,74.49,122.34Z" fill="#fff"/><path d="M89.25,135.54c-7,1.71-14.92,3.61-20.8,7.88a.15.15,0,0,0,.15.26A72.83,72.83,0,0,1,79.54,139c3.27-1.08,6.61-1.94,9.78-3.29C89.41,135.65,89.35,135.51,89.25,135.54Z" fill="#fff"/><path d="M89.43,138.8c-7.26,1.11-14.14,4.71-20.78,7.66-.15.07,0,.3.11.26,3.53-.92,6.87-2.84,10.29-4.11s7.12-2.07,10.5-3.53C89.72,139,89.59,138.78,89.43,138.8Z" fill="#fff"/><path d="M53.43,126.4a.08.08,0,0,0-.15,0c.63,3.43,2.17,6.64,3.43,9.88a59.82,59.82,0,0,0,4.09,9.44c.06.1.24,0,.2-.09C58.53,139.29,55.26,133,53.43,126.4Z" fill="#fff"/><path d="M60.2,135.09c-1.2-3.43-2.83-6.59-4.32-9.89-.05-.09-.18,0-.16.07.66,3.45,2.84,6.62,3.9,10a47.79,47.79,0,0,0,4.76,9.94c.09.15.34.05.28-.12C63.52,141.61,61.41,138.55,60.2,135.09Z" fill="#fff"/><path d="M67.67,140.16c-3.92-2.14-8.56,1.61-8.73,5.69a7.14,7.14,0,0,0,.58,3.74c1.92,4.28,8.91,6,11.68,1.58C73.61,147.31,71.42,142.21,67.67,140.16Z" fill="#fdda9b"/><path d="M61.18,146.14a.44.44,0,0,0,0,.88A.44.44,0,0,0,61.18,146.14Z" fill="#fff"/><path d="M63.92,147.14a.52.52,0,0,0,0,1A.52.52,0,0,0,63.92,147.14Z" fill="#fff"/><path d="M69,146.51a.47.47,0,0,0,0,.93A.47.47,0,0,0,69,146.51Z" fill="#fff"/><path d="M65.39,143.14a.41.41,0,0,0,0,.82A.41.41,0,0,0,65.39,143.14Z" fill="#fff"/><path d="M61.67,144.21a.42.42,0,0,0,0,.83A.42.42,0,0,0,61.67,144.21Z" fill="#fff"/><path d="M63.41,141.42l-.06,0c-.65-.26-.65,1,0,.78l.06,0A.38.38,0,0,0,63.41,141.42Z" fill="#fff"/><path d="M63.77,145.44c-.06-.41-.67-.28-.69.1v.06c0,.5.79.45.7-.09A.17.17,0,0,0,63.77,145.44Z" fill="#fff"/><path d="M70.82,145h0c-.62-.24-.62,1,0,.74h0A.38.38,0,0,0,70.82,145Z" fill="#fff"/><path d="M69.21,142.54a.23.23,0,0,0,0,.45A.23.23,0,0,0,69.21,142.54Z" fill="#fff"/></g><g clip-path="url(#clip-path)"><path d="M14.57,142.87a.41.41,0,0,0-.81,0,.25.25,0,0,1,0,.08.14.14,0,0,0-.22,0C6,152.21,1.92,163.24-1.27,174.63a112.76,112.76,0,0,0-3.45,17.42,19.86,19.86,0,0,0-1.5,4.34c-.71,3.53-.38,7.74-.77,11.38-1,9,.64,18.07.73,27.08a1,1,0,0,0,1.86.25c2.88-7,7.15-13.34,10.06-20.37,3.26-7.88,6.17-16,7.51-24.42a194.42,194.42,0,0,0,2-21.95C15.56,159.81,14.7,151.4,14.57,142.87Z" fill="#627e42"/><path d="M12.87,147.17c-1.35,6.56-3.21,13-4.72,19.52-1.61,7-2.78,14-4.11,21-1.28,6.74-2.52,13.48-3.87,20.2s-3.07,13.48-3.79,20.29c0,.18.27.21.32,0C.44,214.8,2.54,200.75,5.16,187c1.28-6.7,2.41-13.44,3.85-20.1s3.29-13,4.13-19.72C13.16,147.06,12.9,147,12.87,147.17Z" fill="#323d20"/></g><path d="M110.88,19.65c3.25,6.34,6.66,12.63,9.29,19.26A39.47,39.47,0,0,1,122.75,50a17.59,17.59,0,0,1,0,1.92c-6.13-5.22-11.74-10.71-16.29-17.65a89.12,89.12,0,0,1-7.91-14.6c-2-4.77-2.35-10-4.84-14.56a.49.49,0,0,0-.9.25c-.59,19,11,36,24.81,48.06,7.89,6.9,17.08,12.66,23.33,21.24,2.79,3.82,5.33,7.92,7.81,11.94l.31.56c.74,2.2,1,3.85.2,4.19-1.44-.94-2.83-2.55-3.65-3.15a23.56,23.56,0,0,0-8-3.38c-4.55-1.25-9.22-1.78-13.78-2.8-1.84-2.86-4.55-4.41-5.88-7.82-1.61-4.17-2.87-8-5.26-11.83a79.79,79.79,0,0,0-7.38-9.63c-3.17-3.73-7.44-6-10.79-9.46a.22.22,0,0,0-.34.26c2.14,3.8,5.67,6.25,8.41,9.59a76.44,76.44,0,0,1,9.09,14c2,3.89,2.89,9.51,5.8,13-.32-.13-.63-.25-.94-.39-6.21-2.7-11.45-7.36-16.13-12.16-4.34-4.45-9.69-10-10.5-16.47,0-.2-.35-.3-.4-.05-1.1,6.41,2.79,12.11,6.8,16.77,5.62,6.55,12,12.93,20.11,16.3A56.35,56.35,0,0,0,127.57,87c-.55,0-1.11.11-1.66.14a50,50,0,0,1-13.63-1.3,51.38,51.38,0,0,1-21.22-10.3.26.26,0,0,0-.41.32C94.54,83,102.5,86.42,109.91,88.63s18.79,4.15,26.2.33a23.18,23.18,0,0,1,9,4.75c.13.13.27.24.41.36,3.47,6.27,7.42,12.06,9.59,19.15,2.11,6.88,1.86,88.55,2,132.94h6.42V6.52c-1.06,1.05-2.28,1.27-3.78-.81a20.57,20.57,0,0,1-3.24-9.26H153.1a27.06,27.06,0,0,0,.57,7.38c1.07,5.92,2.78,11.73,4.05,17.61,1.42,6.52,3.14,13.21,3.73,19.86a18.34,18.34,0,0,1-.76,7.22,4.37,4.37,0,0,1-2.93,3.18c-3.3-1.85-6.49-7.25-7.78-9.83A43,43,0,0,1,145.28,22c0-8.2-.91-16.74-4.7-24-.19-.5-.38-1-.58-1.48h-3.59C136.86-1.66,137.47.21,138,2c.6,2.1,1.1,4.23,1.54,6.37.23,1.09,1.14,11.56-3.29,9.61-1.47-.65-2.77-2.92-3.78-4.13a33,33,0,0,1-5.11-9.35c-.8-2-1.65-4.08-2.47-6.12-.19-.66-.36-1.31-.52-2h-2.78a37.82,37.82,0,0,0,1.36,6.17c2,7,5.36,13.54,8.65,20,3.52,6.92,7.88,13.34,11.48,20.21a52.46,52.46,0,0,1,4,11.09c.84,3.24.34,6.15-.19,9.25a3.94,3.94,0,0,1-3.06.25c-2.62-.67-4.88-2.9-6.67-4.8-4.22-4.51-5.52-11.25-8-16.75-3.67-8.29-9.55-15.36-14.59-22.86-3.9-7.23-7.51-14.36-8.78-22.54h-2.3C102.82,4.27,107.76,13.57,110.88,19.65Z" fill="#d1866b"/><path d="M151.28,98.19A26.14,26.14,0,0,0,144,89.3c-.19-.16-.46.09-.27.27a77.78,77.78,0,0,1,7.38,8.73A.11.11,0,0,0,151.28,98.19Z" fill="#603635"/><path d="M153.13,101a.25.25,0,0,0-.36.35,9.68,9.68,0,0,1,1.18,2c.12.22.4.06.37-.15A3.87,3.87,0,0,0,153.13,101Z" fill="#603635"/><path d="M160.15,128.88c-.39-7.29,0-15.26-3.57-21.88-.06-.12-.28,0-.22.09,3,7.14,2.66,15.17,3.06,22.75.5,9.23.05,18.53.76,27.74a.12.12,0,0,0,.23,0C161.14,148.09,160.66,138.37,160.15,128.88Z" fill="#603635"/><path d="M148.54,67.83a14.38,14.38,0,0,1-3.59-.08,15.52,15.52,0,0,1-3.67-1.65.16.16,0,0,0-.16.27c2.1,1.44,4.95,3.19,7.5,1.76A.16.16,0,0,0,148.54,67.83Z" fill="#603635"/><path d="M152.84,65.24a5.5,5.5,0,0,0-.59.89,2.61,2.61,0,0,1-1.12.76c-.28.1-.17.54.12.44.78-.26,2-1,1.85-2C153.09,65.18,152.91,65.16,152.84,65.24Z" fill="#603635"/><path d="M153.34,54.72c-.05-.13-.25,0-.21.09a16.42,16.42,0,0,1,.26,8.15.15.15,0,0,0,.28.12C155.27,60.53,154.44,57.3,153.34,54.72Z" fill="#603635"/><path d="M145.43,72.28c-.15-.15-.36.08-.23.24,2.84,3.53,4.46,7.55,6.71,11.43a.18.18,0,0,0,.33-.14A29.31,29.31,0,0,0,145.43,72.28Z" fill="#603635"/><path d="M153.47,86.44a.23.23,0,0,0-.45.12c.48,2.06,1,4.1,1.5,6.16,0,.18.35.19.38,0C155.3,90.56,154.06,88.45,153.47,86.44Z" fill="#603635"/><path d="M97.11,28.73c0-3.56,1.29-7.28,4-9.17a6.6,6.6,0,0,1,7,0c2.44-2.53,8.2-4.49,10.15-4.62.3,0,.65,0,1,0A13.32,13.32,0,0,1,120.1,9c-6.67.31-4.88-8.33-3.37-12.55H79.88c-4.4,8-2.82,20.21,7.17,22-6.27,2.65,1.15,11.67,5.34,15.21A7.85,7.85,0,0,1,97.11,28.73Z" fill="#ea7e77"/><path d="M113.75,53.93c-1.54,2-4.65,3.06-6.9,3.41C102,58.11,98,54.82,95.59,50.9a27.68,27.68,0,0,1-3.8-11.38,8.09,8.09,0,0,0-4.48,2.64,7.44,7.44,0,0,0-1.78,3.25,5.09,5.09,0,0,0-.5.3,3.67,3.67,0,0,0-1.32,3.81C79.06,52.61,83,62.6,88.25,68.09c1.14-1.81,2.88-3.24,4.71-3.24a7,7,0,0,1,4.9,2.09,3,3,0,0,1,1.6.09q.12-.42.24-.87a14.91,14.91,0,0,0,1,1.4,14.61,14.61,0,0,1,3.28,2.6c6.38,2.67,13.4-6.44,13.86-13.44C116,56.13,114.42,55.26,113.75,53.93Z" fill="#efaaa2"/><path d="M105.74,79.84a4.79,4.79,0,0,1-.95.83c.93,2,.25,4.86-1,6.86a21.18,21.18,0,0,1,1.35,1.87,19.43,19.43,0,0,0,2.14,10.49c1.3,2.54,3.49,5.63,6.51,6.17s4.76-2.55,5.7-5c2.58,2.25,5.69,4.1,9.24,3.49,3.06-.53,5.26-3.23,6.58-5.84A18.52,18.52,0,0,0,137,89a4.34,4.34,0,0,0,1.38-.84c4.66-4-2.55-9.25-5.2-11.43-3.28-2.72-11.57-3.59-15.39-1.14-3-2.64-8.62-4.31-11.57-3.58a5.16,5.16,0,0,0-.67.2C107,74.55,107.79,77.57,105.74,79.84Z" fill="#efaaa2"/><path d="M116.73-3.55h0C115.22.68,113.43,9.32,120.1,9a13.32,13.32,0,0,0-.87,5.91c4.46.1,12.42,2.47,12.68,7.18a4.63,4.63,0,0,1,4.83.2c2.33,1.53,3.73,4.37,4.38,7.2,3.46-.08,6.59-1.68,7.37-5.22,3.14,3.41,8.49,3.84,12.76,2.45a6.24,6.24,0,0,0,2.25-1.22V-3.55Z" fill="#efaaa2"/><path d="M136.74,22.3a4.63,4.63,0,0,0-4.83-.2c-.26-4.71-8.22-7.08-12.68-7.18-.36,0-.71,0-1,0-2,.13-7.71,2.09-10.15,4.62a6.6,6.6,0,0,0-7,0c-2.68,1.89-4,5.61-4,9.17a7.85,7.85,0,0,0-4.72,4.9,14.1,14.1,0,0,0-.6,5.89,27.68,27.68,0,0,0,3.8,11.38c2.44,3.92,6.42,7.21,11.26,6.44,2.25-.35,5.36-1.43,6.9-3.41.67,1.33,2.24,2.2,4.1,2.79a35,35,0,0,0,8.63,1.2c3.07.12,6-.19,7.63-2.91a2,2,0,0,0-.1-.21,2.37,2.37,0,0,1-1.34-.7,13.92,13.92,0,0,1-3.31-8c-.27-3,1-6.32,4.28-6.93a16.89,16.89,0,0,1,2.53-.28A7.87,7.87,0,0,1,138.91,33a5.65,5.65,0,0,1,2.58-1.19,16.81,16.81,0,0,0-.37-2.35C140.47,26.67,139.07,23.83,136.74,22.3Z" fill="#fde3da"/><path d="M100.71,67.56A6.32,6.32,0,0,0,99.46,67a3,3,0,0,0-1.6-.09A7,7,0,0,0,93,64.85c-1.83,0-3.57,1.43-4.71,3.24-1.42,2.28-1.88,5.17-.31,6.61a8.37,8.37,0,0,0-2.44,7.89c.43,2.51,1.63,4.45,4.21,5.12a3.15,3.15,0,0,0,3.44-1.34c.72,4,6.06,5.37,9.31,2.7a6.52,6.52,0,0,0,1.31-1.54c1.27-2,2-4.9,1-6.86a4.79,4.79,0,0,0,.95-.83c2.05-2.27,1.24-5.29-.22-7.66a14.33,14.33,0,0,0-1.24-1.7l-.29-.32A14.61,14.61,0,0,0,100.71,67.56Z" fill="#fde3da"/><path d="M136.17,38.88a16.89,16.89,0,0,0-2.53.28c-3.26.61-4.55,4-4.28,6.93a13.92,13.92,0,0,0,3.31,8,2.37,2.37,0,0,0,1.34.7,2,2,0,0,1,.1.21,19.44,19.44,0,0,0,.94,1.75c1.41,2.34,3.67,4.82,6.48,5.3,2.49.43,4-1.78,4.79-3.81,3.23,3.34,7.4,5.25,10.65.51a10.91,10.91,0,0,0,1.53-8.53,6.83,6.83,0,0,0,2-4.47c.23-5.54-5.83-10.37-11.14-9.93A3.34,3.34,0,0,0,147.84,33a8.4,8.4,0,0,0-6.35-1.11A5.65,5.65,0,0,0,138.91,33,7.87,7.87,0,0,0,136.17,38.88Z" fill="#efaaa2"/><path d="M129.35,93.24c.25-.1.46-.31.37-.59a.76.76,0,0,0-.89-.4c0-.44-.11-1-.66-.89a.79.79,0,0,0-.62.83.61.61,0,0,0-.94.27.72.72,0,0,0,.4.94.81.81,0,0,0,.22,1.33c.49.28,1-.07,1.18-.53a.71.71,0,0,0,1.17-.15A.84.84,0,0,0,129.35,93.24Z" fill="#fde3da"/><path d="M116.73,97.72a.25.25,0,0,0,.36,0,.39.39,0,0,0,0-.51c.21-.1.43-.31.24-.53a.41.41,0,0,0-.54-.07.32.32,0,0,0-.37-.36.37.37,0,0,0-.32.42.43.43,0,0,0-.55.45c0,.3.28.42.55.4a.37.37,0,0,0,.37.5A.45.45,0,0,0,116.73,97.72Z" fill="#fde3da"/><path d="M111.41,89.51c0,.15.08.28.23.29s.32-.19.35-.38c.22.1.52.12.56-.16a.41.41,0,0,0-.3-.46.33.33,0,0,0,0-.52.39.39,0,0,0-.54,0,.43.43,0,0,0-.7-.13c-.23.2-.13.49.06.68a.37.37,0,0,0-.21.2.35.35,0,0,0,.08.41A.41.41,0,0,0,111.41,89.51Z" fill="#fde3da"/><path d="M120.47,94.77a.14.14,0,0,0,.2,0,.21.21,0,0,0-.06-.28c.11-.07.22-.2.1-.31a.23.23,0,0,0-.31,0,.17.17,0,0,0-.23-.18c-.13,0-.16.14-.15.26a.24.24,0,0,0-.28.28c0,.17.19.22.34.19a.22.22,0,0,0,0,.16.2.2,0,0,0,.22.09A.23.23,0,0,0,120.47,94.77Z" fill="#fde3da"/><path d="M120.9,91.76c-.08.09-.13.21,0,.3a.32.32,0,0,0,.43,0c.07.19.22.38.42.25a.36.36,0,0,0,.11-.45.26.26,0,0,0,.32-.28c0-.2-.15-.29-.32-.31a.35.35,0,0,0-.33-.49c-.25,0-.37.2-.38.42a.33.33,0,0,0-.24,0,.3.3,0,0,0-.21.28A.37.37,0,0,0,120.9,91.76Z" fill="#fde3da"/><path d="M122.62,83.52c0-.13,0-.28-.11-.33a.38.38,0,0,0-.43.22c-.15-.15-.41-.27-.54,0a.4.4,0,0,0,.12.5.29.29,0,0,0-.18.44.35.35,0,0,0,.48.14.4.4,0,0,0,.58.33.43.43,0,0,0,.16-.62.3.3,0,0,0,.24-.11.32.32,0,0,0,.07-.38A.41.41,0,0,0,122.62,83.52Z" fill="#fde3da"/><path d="M128.18,81.63a.14.14,0,0,0,.19.06.23.23,0,0,0,0-.28c.12,0,.26-.12.19-.26a.23.23,0,0,0-.29-.1.17.17,0,0,0-.15-.24c-.13,0-.2.08-.22.19a.24.24,0,0,0-.36.17c0,.16.1.26.25.29a.16.16,0,0,0,0,.15.19.19,0,0,0,.16.16A.27.27,0,0,0,128.18,81.63Z" fill="#fde3da"/><path d="M133.48,89c.28-.13.5-.37.38-.67a.85.85,0,0,0-1-.39c0-.49-.17-1.08-.76-1a.89.89,0,0,0-.64,1,.66.66,0,0,0-1,.35c-.19.46.11.8.48,1a.91.91,0,0,0,.31,1.46c.56.28,1.05-.13,1.27-.65a.78.78,0,0,0,.55.24.72.72,0,0,0,.73-.46A.9.9,0,0,0,133.48,89Z" fill="#fde3da"/><path d="M128.75,100c0-.12-.13-.21-.26-.17s-.2.23-.19.39c-.19,0-.44,0-.4.28a.34.34,0,0,0,.36.28.27.27,0,0,0,.11.42.31.31,0,0,0,.42-.16.37.37,0,0,0,.6-.08.38.38,0,0,0-.22-.53.36.36,0,0,0,.11-.22.3.3,0,0,0-.17-.31A.39.39,0,0,0,128.75,100Z" fill="#fde3da"/><path d="M124.63,98.69c.34,0,.68-.09.72-.45s-.35-.78-.76-.91c.28-.47.41-1.14-.23-1.34a1,1,0,0,0-1.14.59.72.72,0,0,0-1.17-.21A.85.85,0,0,0,122,97.6a1,1,0,0,0-.49,1.59c.39.57,1.09.44,1.59,0a.82.82,0,0,0,.4.53.8.8,0,0,0,1-.06A1,1,0,0,0,124.63,98.69Z" fill="#fde3da"/><path d="M125.57,87.39a.14.14,0,0,0,.17-.11c0-.12-.09-.2-.19-.23.07-.11.1-.28-.06-.33a.26.26,0,0,0-.28.15.18.18,0,0,0-.29,0,.2.2,0,0,0,0,.3.25.25,0,0,0-.12.4.27.27,0,0,0,.4,0,.17.17,0,0,0,.1.13.2.2,0,0,0,.24,0A.25.25,0,0,0,125.57,87.39Z" fill="#fde3da"/><path d="M110.45,93.9c0-.08-.07-.15-.15-.13a.22.22,0,0,0-.16.24c-.13,0-.29,0-.29.14a.25.25,0,0,0,.21.23.17.17,0,0,0,0,.28.2.2,0,0,0,.29-.07.25.25,0,0,0,.41,0c.1-.13,0-.28-.1-.37a.21.21,0,0,0,.09-.13.19.19,0,0,0-.08-.22A.26.26,0,0,0,110.45,93.9Z" fill="#fde3da"/><path d="M110,81a.28.28,0,0,0-.4,0,.44.44,0,0,0,.09.56c-.23.12-.45.36-.23.6a.47.47,0,0,0,.61,0,.35.35,0,0,0,.43.37c.26,0,.33-.26.32-.49a.47.47,0,0,0,.58-.53c0-.32-.34-.44-.63-.4a.43.43,0,0,0,0-.31.38.38,0,0,0-.41-.21A.49.49,0,0,0,110,81Z" fill="#fde3da"/><path d="M116.75,86a.18.18,0,0,0-.25-.06.27.27,0,0,0,0,.35c-.15,0-.32.15-.23.32a.3.3,0,0,0,.36.12.22.22,0,0,0,.2.29c.16,0,.24-.11.27-.25a.29.29,0,0,0,.43-.22c0-.2-.14-.32-.32-.34a.28.28,0,0,0,0-.2.24.24,0,0,0-.21-.19A.29.29,0,0,0,116.75,86Z" fill="#fde3da"/><path d="M111,98.28a.48.48,0,0,0-.68,0,.73.73,0,0,0,.08,1c-.4.18-.81.56-.47,1a.79.79,0,0,0,1,.15.59.59,0,0,0,.67.68c.45,0,.61-.4.62-.78a.8.8,0,0,0,1-.82c0-.55-.51-.79-1-.77a.7.7,0,0,0,0-.53.64.64,0,0,0-.66-.41A.83.83,0,0,0,111,98.28Z" fill="#fde3da"/><path d="M118.12,80.24a.18.18,0,0,0,.23-.08.27.27,0,0,0-.17-.3c.11-.12.18-.3,0-.39a.27.27,0,0,0-.35.1.21.21,0,0,0-.32-.13.26.26,0,0,0-.09.35.29.29,0,0,0-.22.42c.08.18.28.18.44.1a.26.26,0,0,0,.09.17.21.21,0,0,0,.27,0A.31.31,0,0,0,118.12,80.24Z" fill="#fde3da"/><path d="M132.86,81.48c0-.17-.16-.31-.34-.27s-.31.29-.31.52c-.27-.06-.62,0-.6.33a.5.5,0,0,0,.47.45.38.38,0,0,0,.09.6.46.46,0,0,0,.61-.18.51.51,0,0,0,.84,0c.21-.28,0-.6-.24-.77a.45.45,0,0,0,.18-.28.39.39,0,0,0-.18-.45A.52.52,0,0,0,132.86,81.48Z" fill="#fde3da"/><path d="M88.61,59.82c-.12.23-.13.51.11.64a.7.7,0,0,0,.86-.27c.26.33.7.62,1,.21a.75.75,0,0,0-.09-1,.56.56,0,0,0,.49-.77.68.68,0,0,0-.86-.4.76.76,0,0,0-1-.8c-.52.11-.63.65-.5,1.11a.61.61,0,0,0-.48.14.59.59,0,0,0-.24.69A.77.77,0,0,0,88.61,59.82Z" fill="#fde3da"/><path d="M89.58,50.16a.5.5,0,0,0,0-.73.8.8,0,0,0-1,.14c-.21-.42-.65-.82-1.08-.44a.86.86,0,0,0-.09,1.1.63.63,0,0,0-.69.76c.06.47.47.62.87.62a.86.86,0,0,0,.94,1.07c.59,0,.82-.59.76-1.14a.71.71,0,0,0,.57,0,.71.71,0,0,0,.4-.73A.91.91,0,0,0,89.58,50.16Z" fill="#fde3da"/><path d="M84.59,53.28a.28.28,0,0,0-.4-.09.45.45,0,0,0,0,.57c-.26.08-.53.27-.37.55a.47.47,0,0,0,.59.17.36.36,0,0,0,.35.46c.26,0,.39-.18.43-.41a.48.48,0,0,0,.69-.39c.06-.33-.23-.51-.53-.54a.4.4,0,0,0,0-.32A.38.38,0,0,0,85,53,.49.49,0,0,0,84.59,53.28Z" fill="#fde3da"/><path d="M93.46,56.42c0,.19,0,.39.23.42s.45-.18.54-.41c.26.17.64.26.76-.1a.55.55,0,0,0-.3-.66.41.41,0,0,0,.14-.66.49.49,0,0,0-.7-.07.56.56,0,0,0-.89-.31.6.6,0,0,0-.06.9.44.44,0,0,0-.31.22.45.45,0,0,0,0,.54A.57.57,0,0,0,93.46,56.42Z" fill="#fde3da"/><path d="M99.25,64.44c.13.16.32.26.5.14a.56.56,0,0,0,.1-.71c.32-.06.68-.27.51-.64a.59.59,0,0,0-.72-.28.44.44,0,0,0-.38-.61c-.33-.05-.51.19-.59.46a.6.6,0,0,0-.9.42c-.1.41.24.67.61.74a.49.49,0,0,0-.07.39.46.46,0,0,0,.41.41A.6.6,0,0,0,99.25,64.44Z" fill="#fde3da"/><path d="M112.51,58.73a.47.47,0,0,0,.19-.65.74.74,0,0,0-.94-.14c-.09-.42-.37-.9-.86-.67a.8.8,0,0,0-.36,1,.59.59,0,0,0-.81.51c-.07.44.26.67.62.77a.8.8,0,0,0,.57,1.2c.54.13.88-.32,1-.82a.67.67,0,0,0,.52.09.64.64,0,0,0,.54-.54A.8.8,0,0,0,112.51,58.73Z" fill="#fde3da"/><path d="M108.27,65.06c0,.15,0,.3.19.33s.36-.16.42-.34c.21.13.51.19.6-.1a.44.44,0,0,0-.25-.51.33.33,0,0,0,.1-.52.39.39,0,0,0-.56,0,.44.44,0,0,0-.7-.23c-.26.17-.21.48,0,.71a.39.39,0,0,0-.24.18.36.36,0,0,0,0,.43A.47.47,0,0,0,108.27,65.06Z" fill="#fde3da"/><path d="M106.33,59.63a.44.44,0,0,0,.14-.63.69.69,0,0,0-.9-.07c-.1-.4-.39-.84-.84-.59a.76.76,0,0,0-.3.93.55.55,0,0,0-.74.52c0,.42.28.62.63.7a.76.76,0,0,0,.6,1.1c.52.1.82-.35.88-.83a.62.62,0,0,0,.5.07.62.62,0,0,0,.48-.55A.78.78,0,0,0,106.33,59.63Z" fill="#fde3da"/><path d="M98.66,59.57c.23,0,.44-.11.44-.35s-.28-.48-.56-.54c.14-.33.18-.78-.26-.86a.67.67,0,0,0-.7.47.48.48,0,0,0-.78,0,.58.58,0,0,0,0,.82.66.66,0,0,0-.2,1.07.71.71,0,0,0,1-.08.54.54,0,0,0,.3.31.53.53,0,0,0,.62-.11A.64.64,0,0,0,98.66,59.57Z" fill="#fde3da"/><path d="M89,46.36c0,.14.08.26.23.25a.37.37,0,0,0,.31-.37c.21.08.49.08.52-.2a.41.41,0,0,0-.32-.41.29.29,0,0,0,0-.48.35.35,0,0,0-.5.06.4.4,0,0,0-.67-.07.42.42,0,0,0,.1.64.32.32,0,0,0-.18.2.32.32,0,0,0,.09.38A.44.44,0,0,0,89,46.36Z" fill="#fde3da"/><path d="M144.38,53.87a.18.18,0,0,0,.06.23.25.25,0,0,0,.3-.12c.1.12.26.21.37.06a.28.28,0,0,0-.05-.35.19.19,0,0,0,.16-.28.22.22,0,0,0-.31-.13.28.28,0,0,0-.37-.27c-.18.05-.21.24-.16.4a.27.27,0,0,0-.17.06.22.22,0,0,0-.07.26A.3.3,0,0,0,144.38,53.87Z" fill="#fde3da"/><path d="M136.93,46.79a.48.48,0,0,0-.1-.67.74.74,0,0,0-.92.28c-.25-.35-.71-.66-1-.25a.79.79,0,0,0,.07,1,.59.59,0,0,0-.52.8.7.7,0,0,0,.89.44.8.8,0,0,0,1,.85c.54-.11.66-.66.53-1.15a.67.67,0,0,0,.52-.14.62.62,0,0,0,.25-.72A.81.81,0,0,0,136.93,46.79Z" fill="#fde3da"/><path d="M142.08,57.22a.16.16,0,0,0,.1-.21.26.26,0,0,0-.32-.1c0-.15-.07-.32-.25-.27a.29.29,0,0,0-.18.31.2.2,0,0,0-.3.12.24.24,0,0,0,.17.3.28.28,0,0,0,.13.44c.18.07.32-.06.37-.23a.23.23,0,0,0,.18.06.23.23,0,0,0,.21-.16A.28.28,0,0,0,142.08,57.22Z" fill="#fde3da"/><path d="M143.39,48.67c.35-.08.65-.3.59-.67s-.59-.67-1-.68c.13-.56.06-1.27-.65-1.27a1,1,0,0,0-1,.93.77.77,0,0,0-1.24.15.91.91,0,0,0,.31,1.26,1.05,1.05,0,0,0,0,1.74c.56.45,1.22.1,1.6-.43a.93.93,0,0,0,.57.4.84.84,0,0,0,.94-.35A1.06,1.06,0,0,0,143.39,48.67Z" fill="#fde3da"/><path d="M150.81,47.85a.23.23,0,0,0,.22-.24.36.36,0,0,0-.38-.25c.06-.21,0-.47-.22-.47a.37.37,0,0,0-.36.33.27.27,0,0,0-.45,0,.33.33,0,0,0,.1.46.38.38,0,0,0,0,.63.4.4,0,0,0,.59-.14.34.34,0,0,0,.2.15.29.29,0,0,0,.35-.11A.41.41,0,0,0,150.81,47.85Z" fill="#fde3da"/><path d="M152.28,54.77c.12-.2.15-.45-.06-.58a.64.64,0,0,0-.79.19c-.2-.31-.58-.6-.89-.26a.67.67,0,0,0,0,.88.49.49,0,0,0-.48.65c.08.38.41.46.74.42a.68.68,0,0,0,.83.78c.47-.07.6-.54.51-1a.57.57,0,0,0,.45-.09.55.55,0,0,0,.25-.61A.69.69,0,0,0,152.28,54.77Z" fill="#fde3da"/><path d="M155.08,43.26c0-.23-.19-.42-.43-.38a.63.63,0,0,0-.43.68c-.36-.09-.82,0-.82.42a.68.68,0,0,0,.61.61.49.49,0,0,0,.1.8.59.59,0,0,0,.81-.21.68.68,0,0,0,1.12,0c.29-.36.06-.79-.29-1a.57.57,0,0,0,.26-.37.53.53,0,0,0-.23-.6A.69.69,0,0,0,155.08,43.26Z" fill="#fde3da"/><path d="M145.92,39.18c0,.09,0,.19.05.23a.25.25,0,0,0,.31-.12c.1.11.27.2.38.05a.28.28,0,0,0-.06-.35.2.2,0,0,0,.15-.3.24.24,0,0,0-.32-.12.28.28,0,0,0-.38-.26c-.19,0-.21.25-.15.42a.22.22,0,0,0-.17.06.21.21,0,0,0-.07.26A.26.26,0,0,0,145.92,39.18Z" fill="#fde3da"/><path d="M146.72,43.49c.13-.06.24-.19.17-.33a.4.4,0,0,0-.5-.17c0-.24-.1-.53-.39-.45a.45.45,0,0,0-.3.48.33.33,0,0,0-.49.19c-.08.23.07.39.26.48a.44.44,0,0,0,.18.71c.28.13.51-.08.61-.34a.4.4,0,0,0,.28.1.35.35,0,0,0,.35-.24A.47.47,0,0,0,146.72,43.49Z" fill="#fde3da"/><path d="M137.44,40.69c-.06-.1-.15-.17-.26-.12a.31.31,0,0,0-.11.38c-.18,0-.4.11-.33.32a.34.34,0,0,0,.38.21.24.24,0,0,0,.16.36c.18.06.3-.07.36-.21a.34.34,0,0,0,.53-.17c.08-.21-.09-.38-.29-.45a.3.3,0,0,0-.12-.47A.35.35,0,0,0,137.44,40.69Z" fill="#fde3da"/><path d="M140.82,35.4a.21.21,0,0,0,0,.3.34.34,0,0,0,.42-.12c.11.16.31.31.47.12a.35.35,0,0,0,0-.46.26.26,0,0,0,.24-.35.31.31,0,0,0-.39-.2.36.36,0,0,0-.45-.39c-.25,0-.31.29-.25.51a.32.32,0,0,0-.23,0,.29.29,0,0,0-.12.33A.36.36,0,0,0,140.82,35.4Z" fill="#fde3da"/><path d="M151.39,37.73c-.15-.31-.44-.54-.78-.39a.94.94,0,0,0-.38,1.16c-.56,0-1.22.26-1,.92a1,1,0,0,0,1.13.68.74.74,0,0,0,.45,1.13c.54.19.91-.17,1.11-.61a1,1,0,0,0,1.64-.43c.29-.65-.2-1.19-.81-1.41a.91.91,0,0,0,.24-.64.81.81,0,0,0-.57-.8A1,1,0,0,0,151.39,37.73Z" fill="#fde3da"/><path d="M142.44,38.91c0-.34-.11-.68-.47-.72s-.78.37-.91.8c-.48-.27-1.17-.4-1.35.27a1,1,0,0,0,.62,1.14.74.74,0,0,0-.18,1.19.89.89,0,0,0,1.26,0,1,1,0,0,0,1.62.45,1.06,1.06,0,0,0,0-1.61.82.82,0,0,0,.52-.43.8.8,0,0,0-.08-1A1,1,0,0,0,142.44,38.91Z" fill="#fde3da"/><path d="M133.61,10.11c.23-.11.4-.32.29-.56a.67.67,0,0,0-.82-.28c0-.41-.17-.88-.65-.76a.72.72,0,0,0-.5.8.54.54,0,0,0-.82.3.64.64,0,0,0,.42.81.74.74,0,0,0,.3,1.18c.46.21.85-.13,1-.56a.65.65,0,0,0,.45.18.59.59,0,0,0,.58-.4A.72.72,0,0,0,133.61,10.11Z" fill="#fde3da"/><path d="M122.91,3a.44.44,0,0,0,0,.62.67.67,0,0,0,.86-.13c.19.35.57.69.93.36a.73.73,0,0,0,.06-.94.53.53,0,0,0,.57-.65c0-.41-.4-.53-.75-.51a.73.73,0,0,0-.81-.9c-.5,0-.68.51-.63,1a.63.63,0,0,0-.48.06.58.58,0,0,0-.33.62A.75.75,0,0,0,122.91,3Z" fill="#fde3da"/><path d="M125.49,10.21a.53.53,0,0,0-.74-.05.81.81,0,0,0,.09,1c-.43.2-.86.61-.5,1.07a.87.87,0,0,0,1.1.15.63.63,0,0,0,.72.73c.48,0,.66-.43.67-.84a.87.87,0,0,0,1.13-.88c0-.6-.55-.86-1.1-.83a.75.75,0,0,0,0-.57.68.68,0,0,0-.71-.44A.89.89,0,0,0,125.49,10.21Z" fill="#fde3da"/><path d="M140.51,15.3c0-.11-.08-.22-.21-.22a.33.33,0,0,0-.26.34c-.18-.07-.43-.07-.45.17a.35.35,0,0,0,.28.36.26.26,0,0,0,0,.42.31.31,0,0,0,.43-.06.36.36,0,0,0,.59.05c.17-.18.07-.41-.1-.56a.3.3,0,0,0,.16-.17.29.29,0,0,0-.09-.33A.38.38,0,0,0,140.51,15.3Z" fill="#fde3da"/><path d="M142.33,21.39a.43.43,0,0,0-.57.25.68.68,0,0,0,.46.74c-.25.31-.43.78,0,1a.74.74,0,0,0,.89-.3.53.53,0,0,0,.82.28.65.65,0,0,0,.19-.89.74.74,0,0,0,.52-1.09c-.23-.46-.74-.44-1.15-.21a.62.62,0,0,0-.23-.43.59.59,0,0,0-.7-.06A.75.75,0,0,0,142.33,21.39Z" fill="#fde3da"/><path d="M155.22,20.32c0,.15.14.29.3.26a.43.43,0,0,0,.3-.47c.25.06.57,0,.56-.29a.45.45,0,0,0-.41-.42.34.34,0,0,0-.07-.55.4.4,0,0,0-.56.14.47.47,0,0,0-.77,0c-.21.25,0,.55.19.72a.37.37,0,0,0-.18.25.38.38,0,0,0,.16.42A.49.49,0,0,0,155.22,20.32Z" fill="#fde3da"/><path d="M158.71,10.62c0,.08,0,.15.14.15a.23.23,0,0,0,.18-.22c.12,0,.29,0,.3-.12a.23.23,0,0,0-.19-.24.18.18,0,0,0,0-.29.21.21,0,0,0-.29,0,.24.24,0,0,0-.4,0,.25.25,0,0,0,.06.37.29.29,0,0,0-.1.12.22.22,0,0,0,.06.23A.28.28,0,0,0,158.71,10.62Z" fill="#fde3da"/><path d="M157.41.76c0-.1,0-.21-.1-.24s-.25.07-.31.19c-.13-.1-.32-.17-.41,0a.29.29,0,0,0,.13.36.23.23,0,0,0-.11.35.27.27,0,0,0,.37.07.29.29,0,0,0,.45.21c.19-.09.18-.3.09-.47a.25.25,0,0,0,.17-.1.23.23,0,0,0,0-.29A.29.29,0,0,0,157.41.76Z" fill="#fde3da"/><path d="M148.75,9.85c.14-.22.17-.49-.06-.64a.7.7,0,0,0-.88.21c-.23-.35-.65-.67-1-.29a.76.76,0,0,0,0,1,.55.55,0,0,0-.54.73.66.66,0,0,0,.82.46.77.77,0,0,0,.93.87c.52-.08.67-.6.57-1.07a.65.65,0,0,0,.5-.1.6.6,0,0,0,.28-.68A.78.78,0,0,0,148.75,9.85Z" fill="#fde3da"/><path d="M132.49.73c0-.1,0-.19-.14-.2s-.21.13-.24.25c-.14-.07-.34-.08-.37.1a.29.29,0,0,0,.2.31.2.2,0,0,0,0,.33c.11.12.24.07.35,0a.29.29,0,0,0,.46.09.3.3,0,0,0,0-.45.33.33,0,0,0,.13-.13.22.22,0,0,0,0-.27A.27.27,0,0,0,132.49.73Z" fill="#fde3da"/><path d="M147.51-.22c0-.07-.13-.12-.21-.07a.23.23,0,0,0,0,.3c-.14,0-.29.12-.22.28a.24.24,0,0,0,.3.11.19.19,0,0,0,.16.26c.14,0,.22-.07.25-.19a.26.26,0,0,0,.39-.18c0-.17-.1-.28-.26-.31a.24.24,0,0,0,0-.17.21.21,0,0,0-.17-.17A.25.25,0,0,0,147.51-.22Z" fill="#fde3da"/><path d="M139.91,6.57c.09.08.2.13.29,0a.3.3,0,0,0,0-.4c.18-.07.36-.22.23-.41a.34.34,0,0,0-.43-.09.24.24,0,0,0-.26-.31c-.19,0-.27.15-.29.31A.34.34,0,0,0,139,6c0,.23.19.35.41.36a.3.3,0,0,0,0,.23.27.27,0,0,0,.26.19A.33.33,0,0,0,139.91,6.57Z" fill="#fde3da"/><path d="M152.24,5.8c0,.13,0,.26.18.27a.33.33,0,0,0,.33-.29c.18.1.44.15.5-.09a.38.38,0,0,0-.22-.43.28.28,0,0,0,.07-.44.33.33,0,0,0-.47,0,.37.37,0,0,0-.59-.17c-.21.15-.16.41,0,.6a.33.33,0,0,0-.2.15.3.3,0,0,0,0,.36A.37.37,0,0,0,152.24,5.8Z" fill="#fde3da"/><path d="M150.08,15.49c-.06-.24-.23-.44-.48-.38a.66.66,0,0,0-.43.75c-.39-.07-.89,0-.85.5A.73.73,0,0,0,149,17a.54.54,0,0,0,.16.85.63.63,0,0,0,.86-.27.73.73,0,0,0,1.2-.07c.29-.41,0-.86-.37-1.1a.64.64,0,0,0,.26-.4.59.59,0,0,0-.28-.64A.74.74,0,0,0,150.08,15.49Z" fill="#fde3da"/><path d="M155.78,14.79a.41.41,0,0,0,.59-.07.64.64,0,0,0-.21-.79c.31-.22.6-.6.25-.91a.7.7,0,0,0-.89,0,.51.51,0,0,0-.67-.48c-.37.09-.45.43-.41.76a.69.69,0,0,0-.77.85c.08.47.55.59,1,.5a.62.62,0,0,0,.1.45.55.55,0,0,0,.62.24A.69.69,0,0,0,155.78,14.79Z" fill="#fde3da"/><path d="M132.35,17.75a.36.36,0,0,0,.12.51.56.56,0,0,0,.68-.27c.22.25.59.47.83.13a.62.62,0,0,0-.12-.78.46.46,0,0,0,.35-.65.53.53,0,0,0-.71-.28.62.62,0,0,0-.83-.59c-.42.11-.47.55-.35.92a.51.51,0,0,0-.38.13.47.47,0,0,0-.15.57A.63.63,0,0,0,132.35,17.75Z" fill="#fde3da"/><path d="M95.48,19.59c.23.16.52.22.7,0a.76.76,0,0,0-.16-1c.39-.22.77-.64.39-1a.81.81,0,0,0-1-.06.61.61,0,0,0-.75-.64c-.45.07-.58.46-.56.85a.83.83,0,0,0-1,.93c0,.56.59.76,1.1.69a.74.74,0,0,0,.07.54.66.66,0,0,0,.7.36A.83.83,0,0,0,95.48,19.59Z" fill="#efaaa2"/><path d="M105.85,13.06a.18.18,0,0,0-.26-.05.29.29,0,0,0,0,.37c-.16,0-.34.17-.23.35a.31.31,0,0,0,.38.11.23.23,0,0,0,.22.3c.17,0,.25-.12.28-.26a.31.31,0,0,0,.45-.26c0-.21-.15-.33-.35-.35a.24.24,0,0,0,0-.2.26.26,0,0,0-.23-.2A.32.32,0,0,0,105.85,13.06Z" fill="#efaaa2"/><path d="M100.55,10.13c.33,0,.67-.08.72-.43s-.34-.77-.74-.91c.27-.46.42-1.12-.22-1.32A1,1,0,0,0,99.18,8,.72.72,0,0,0,98,7.81.87.87,0,0,0,98,9a1,1,0,0,0-.49,1.55c.37.57,1.06.45,1.56.07a.84.84,0,0,0,.39.53.78.78,0,0,0,1,0A1,1,0,0,0,100.55,10.13Z" fill="#efaaa2"/><path d="M93.87,11.57c.33,0,.65-.11.68-.45s-.36-.74-.77-.85c.25-.46.36-1.11-.27-1.27a1,1,0,0,0-1.07.6.71.71,0,0,0-1.13-.16.84.84,0,0,0,0,1.19,1,1,0,0,0-.4,1.54,1,1,0,0,0,1.52,0,.82.82,0,0,0,.41.49.75.75,0,0,0,.91-.09A1,1,0,0,0,93.87,11.57Z" fill="#efaaa2"/><path d="M82.43,11.19c-.13.15-.19.35,0,.49a.55.55,0,0,0,.7,0c.12.29.4.59.71.35a.58.58,0,0,0,.11-.74.42.42,0,0,0,.5-.48c0-.32-.29-.44-.56-.46a.59.59,0,0,0-.58-.77c-.41,0-.59.37-.57.74a.48.48,0,0,0-.39,0,.46.46,0,0,0-.3.47A.6.6,0,0,0,82.43,11.19Z" fill="#efaaa2"/><path d="M88.42,3.55a.21.21,0,0,0,.27.12.32.32,0,0,0,.11-.39c.19,0,.41-.1.34-.32a.34.34,0,0,0-.38-.22.25.25,0,0,0-.17-.37c-.18-.06-.3.07-.36.21a.34.34,0,0,0-.54.17c-.09.22.08.39.28.46a.27.27,0,0,0-.07.21.28.28,0,0,0,.2.27A.38.38,0,0,0,88.42,3.55Z" fill="#efaaa2"/><path d="M103.15,2c.2.26.5.43.78.24a.88.88,0,0,0,.17-1.13c.52-.1,1.09-.43.82-1a.94.94,0,0,0-1.14-.45.7.7,0,0,0-.59-1c-.53-.09-.82.29-.94.73a1,1,0,0,0-1.44.66c-.16.64.37,1.06,1,1.17a.75.75,0,0,0-.12.62.74.74,0,0,0,.64.65A1,1,0,0,0,103.15,2Z" fill="#efaaa2"/><path d="M95.19,4.23c.12,0,.24-.05.25-.18s-.15-.27-.3-.31c.09-.17.12-.42-.12-.47a.36.36,0,0,0-.4.24.26.26,0,0,0-.42,0,.31.31,0,0,0,0,.45.35.35,0,0,0-.13.58c.15.19.4.13.57,0a.31.31,0,0,0,.16.18.28.28,0,0,0,.34,0A.37.37,0,0,0,95.19,4.23Z" fill="#efaaa2"/><path d="M109.17,10.21c.1.31.33.57.67.48a.9.9,0,0,0,.53-1c.52.07,1.18-.06,1.11-.71a1,1,0,0,0-1-.8A.71.71,0,0,0,110.27,7c-.47-.26-.87,0-1.13.4a1,1,0,0,0-1.59.16c-.37.57,0,1.14.54,1.44a.83.83,0,0,0-.31.56.76.76,0,0,0,.41.84A1,1,0,0,0,109.17,10.21Z" fill="#efaaa2"/><path d="M108.86,45.84c.26,0,.52-.06.56-.33a.71.71,0,0,0-.58-.71c.22-.36.34-.88-.16-1a.76.76,0,0,0-.88.43.56.56,0,0,0-.89-.18.67.67,0,0,0-.08.95.78.78,0,0,0-.39,1.21.81.81,0,0,0,1.22.07.67.67,0,0,0,.3.4.6.6,0,0,0,.74,0A.77.77,0,0,0,108.86,45.84Z" fill="#efaaa2"/><path d="M103.73,38.29c.07.1.18.17.28.11a.32.32,0,0,0,.09-.41c.19,0,.41-.14.32-.36a.35.35,0,0,0-.41-.18.25.25,0,0,0-.2-.37c-.19,0-.3.09-.35.25a.35.35,0,0,0-.54.21c-.08.23.11.39.33.45a.25.25,0,0,0-.06.22.27.27,0,0,0,.22.25A.33.33,0,0,0,103.73,38.29Z" fill="#efaaa2"/><path d="M109.2,33c-.24-.08-.49,0-.59.19a.68.68,0,0,0,.39.77c-.27.29-.48.74,0,1a.7.7,0,0,0,.89-.23.53.53,0,0,0,.79.34.63.63,0,0,0,.25-.86.72.72,0,0,0,.6-1c-.18-.47-.69-.49-1.11-.3a.61.61,0,0,0-.19-.43.58.58,0,0,0-.69-.12A.71.71,0,0,0,109.2,33Z" fill="#efaaa2"/><path d="M114,41c.2-.06.37-.2.32-.41a.56.56,0,0,0-.64-.37c.06-.34,0-.76-.42-.74a.62.62,0,0,0-.54.59.45.45,0,0,0-.73.13.54.54,0,0,0,.22.73.63.63,0,0,0,.06,1c.35.25.73,0,.94-.31a.5.5,0,0,0,.35.22.47.47,0,0,0,.54-.23A.63.63,0,0,0,114,41Z" fill="#efaaa2"/><path d="M124.13,40.83c.14-.31.14-.66-.17-.82a.9.9,0,0,0-1.11.41c-.34-.42-.93-.77-1.32-.23a1,1,0,0,0,.16,1.25.73.73,0,0,0-.58,1,.86.86,0,0,0,1.13.48,1,1,0,0,0,1.32,1c.66-.17.77-.87.58-1.46a.85.85,0,0,0,.62-.2.8.8,0,0,0,.27-.92A1,1,0,0,0,124.13,40.83Z" fill="#efaaa2"/><path d="M122.69,50.37c0,.14.08.27.23.27s.3-.19.33-.37c.21.09.5.11.54-.17a.4.4,0,0,0-.3-.43.31.31,0,0,0,0-.5.37.37,0,0,0-.52,0,.42.42,0,0,0-.68-.11c-.21.19-.12.47.07.66a.36.36,0,0,0-.2.2.34.34,0,0,0,.08.39A.41.41,0,0,0,122.69,50.37Z" fill="#efaaa2"/><path d="M116.38,47.54c0,.16,0,.34.2.38s.4-.14.49-.34c.22.16.55.26.68-.06a.49.49,0,0,0-.24-.59.37.37,0,0,0,.15-.58.43.43,0,0,0-.61-.09.5.5,0,0,0-.77-.32c-.31.17-.27.53-.1.8a.42.42,0,0,0-.28.17.41.41,0,0,0,0,.49A.53.53,0,0,0,116.38,47.54Z" fill="#efaaa2"/><path d="M119.78,35c.14.15.34.23.5.09a.56.56,0,0,0,0-.71c.31-.1.65-.35.43-.69a.59.59,0,0,0-.74-.2.44.44,0,0,0-.44-.56c-.34,0-.49.25-.53.53a.6.6,0,0,0-.85.51c0,.42.31.64.69.66a.55.55,0,0,0,0,.4.48.48,0,0,0,.46.36A.61.61,0,0,0,119.78,35Z" fill="#efaaa2"/><path d="M117.27,26.64c.16.19.39.31.6.15a.68.68,0,0,0,.1-.87c.38-.09.81-.36.58-.8a.73.73,0,0,0-.88-.3.54.54,0,0,0-.49-.72c-.4-.05-.61.25-.69.59a.72.72,0,0,0-1.07.55c-.11.5.32.8.78.86a.62.62,0,0,0-.08.48.59.59,0,0,0,.52.48A.73.73,0,0,0,117.27,26.64Z" fill="#efaaa2"/><path d="M108.28,24.14a.59.59,0,0,0-.83.17.92.92,0,0,0,.39,1.12c-.43.34-.8.93-.26,1.34a1,1,0,0,0,1.28-.15.72.72,0,0,0,1,.61c.53-.17.6-.67.5-1.13a1,1,0,0,0,1-1.31c-.16-.67-.86-.8-1.46-.61a.84.84,0,0,0-.19-.64.81.81,0,0,0-.92-.29A1,1,0,0,0,108.28,24.14Z" fill="#efaaa2"/><path d="M124.52,21.81c.25,0,.48-.12.48-.38s-.32-.53-.62-.59c.15-.36.19-.85-.29-.94a.71.71,0,0,0-.76.52.53.53,0,0,0-.86-.05.63.63,0,0,0,.06.89.73.73,0,0,0-.21,1.18.76.76,0,0,0,1.14-.1.63.63,0,0,0,.34.34.58.58,0,0,0,.68-.12A.74.74,0,0,0,124.52,21.81Z" fill="#efaaa2"/><path d="M127.45,30c.11.15.27.24.43.14a.5.5,0,0,0,.11-.61c.28,0,.6-.22.46-.54a.52.52,0,0,0-.62-.26.38.38,0,0,0-.31-.54c-.28-.06-.45.15-.52.38a.53.53,0,0,0-.8.34c-.1.35.19.59.51.66a.42.42,0,0,0-.07.33.41.41,0,0,0,.34.37A.51.51,0,0,0,127.45,30Z" fill="#efaaa2"/><path d="M135.46,27.49c0-.12-.13-.21-.25-.18s-.21.22-.2.38c-.2,0-.44,0-.42.25a.35.35,0,0,0,.35.3.27.27,0,0,0,.09.42c.17.1.32,0,.42-.14a.36.36,0,0,0,.59-.05c.14-.21,0-.42-.19-.54a.3.3,0,0,0,.12-.2.29.29,0,0,0-.15-.31A.33.33,0,0,0,135.46,27.49Z" fill="#efaaa2"/><path d="M108.53,53.52c.2.07.42,0,.5-.16a.56.56,0,0,0-.32-.66c.24-.24.43-.63.07-.84A.62.62,0,0,0,108,52a.45.45,0,0,0-.67-.31.55.55,0,0,0-.23.74.62.62,0,0,0-.53.87c.15.41.59.43,1,.28a.49.49,0,0,0,.16.37.49.49,0,0,0,.58.12A.65.65,0,0,0,108.53,53.52Z" fill="#efaaa2"/><path d="M98.05,42.24c.32.1.67.06.79-.27a.89.89,0,0,0-.53-1c.37-.39.64-1,.07-1.33a1,1,0,0,0-1.21.32.71.71,0,0,0-1.08-.45.85.85,0,0,0-.33,1.16A1,1,0,0,0,95,42c.25.63.94.66,1.5.4a.83.83,0,0,0,.27.58.78.78,0,0,0,.93.16A1,1,0,0,0,98.05,42.24Z" fill="#efaaa2"/><path d="M92.54,80.72c.27-.09.49-.3.41-.59a.79.79,0,0,0-.89-.46c.06-.45-.06-1-.62-1a.84.84,0,0,0-.69.83.62.62,0,0,0-1,.23.73.73,0,0,0,.35,1,.84.84,0,0,0,.15,1.38c.49.32,1,0,1.25-.48a.7.7,0,0,0,.48.28.67.67,0,0,0,.73-.36A.87.87,0,0,0,92.54,80.72Z" fill="#efaaa2"/><path d="M97.7,83.38a.51.51,0,0,0,.12-.73.8.8,0,0,0-1,0c-.15-.45-.52-.93-1-.62a.86.86,0,0,0-.27,1.08.65.65,0,0,0-.82.65c0,.48.36.7.77.76a.87.87,0,0,0,.76,1.23c.6.08.92-.45,1-1a.69.69,0,0,0,.58,0,.68.68,0,0,0,.52-.66A.88.88,0,0,0,97.7,83.38Z" fill="#efaaa2"/><path d="M97.28,78c-.07-.07-.16-.12-.25-.06a.27.27,0,0,0,0,.35c-.15,0-.32.15-.23.33a.28.28,0,0,0,.36.11.21.21,0,0,0,.2.29c.16,0,.24-.1.27-.24a.29.29,0,0,0,.43-.23c0-.2-.13-.32-.32-.34a.25.25,0,0,0,0-.19.23.23,0,0,0-.21-.19A.3.3,0,0,0,97.28,78Z" fill="#efaaa2"/><path d="M93.43,76.67c.12-.07.21-.19.14-.32a.37.37,0,0,0-.47-.13c0-.23-.13-.5-.4-.41a.41.41,0,0,0-.25.47.3.3,0,0,0-.45.2.35.35,0,0,0,.26.44.42.42,0,0,0,.21.66c.27.11.48-.1.56-.35a.38.38,0,0,0,.26.08.33.33,0,0,0,.32-.24A.46.46,0,0,0,93.43,76.67Z" fill="#efaaa2"/><path d="M90.42,71.08a.61.61,0,0,0,0,.88,1,1,0,0,0,1.23-.15c.25.5.77,1,1.3.54A1,1,0,0,0,93.05,71a.76.76,0,0,0,.84-.91c-.07-.57-.55-.76-1-.75a1,1,0,0,0-1.12-1.3c-.71,0-1,.7-.93,1.35a.9.9,0,0,0-.68.06.82.82,0,0,0-.49.87A1,1,0,0,0,90.42,71.08Z" fill="#efaaa2"/><path d="M99.74,71.37c-.1-.32-.34-.6-.69-.5a.91.91,0,0,0-.56,1c-.55-.08-1.23,0-1.17.72a1,1,0,0,0,1,.85.73.73,0,0,0,.25,1.17.87.87,0,0,0,1.18-.4,1,1,0,0,0,1.66-.15c.39-.58,0-1.18-.55-1.5a.85.85,0,0,0,.34-.58.79.79,0,0,0-.42-.87A1,1,0,0,0,99.74,71.37Z" fill="#efaaa2"/><path d="M101.18,76c-.15-.29-.43-.51-.74-.36a.9.9,0,0,0-.35,1.09c-.52,0-1.14.26-1,.88a.94.94,0,0,0,1.06.63.7.7,0,0,0,.44,1.06c.51.17.85-.17,1-.59a1,1,0,0,0,1.54-.43c.26-.61-.21-1.11-.78-1.31a.86.86,0,0,0,.22-.6.78.78,0,0,0-.55-.75A1,1,0,0,0,101.18,76Z" fill="#efaaa2"/><path d="M89.81,84.65c0,.16,0,.33.12.38a.44.44,0,0,0,.51-.25c.18.18.48.31.64,0a.48.48,0,0,0-.15-.59.35.35,0,0,0,.22-.52.41.41,0,0,0-.56-.16.47.47,0,0,0-.68-.39.49.49,0,0,0-.19.72.41.41,0,0,0-.29.13.37.37,0,0,0-.07.45A.46.46,0,0,0,89.81,84.65Z" fill="#efaaa2"/><circle cx="98.88" cy="141.31" r="1.61" fill="#603635"/><path d="M98.18,140.86a.44.44,0,0,0,0,.87A.44.44,0,0,0,98.18,140.86Z" fill="#fff"/><path d="M110.45,136.86c-2.37-.84-5.1,1.42-5.87,3.49a15.32,15.32,0,0,0-.64,7.1c-.63.36,0,1.37.55,1.07,3.16-1.18,6.23-3,7.84-6.05A4,4,0,0,0,110.45,136.86Z" fill="#bbecef"/><path d="M109,137.71c-3.37.54-4.71,4.75-4,7.7a.1.1,0,0,0,.2,0,24,24,0,0,1,.53-3.75,5.82,5.82,0,0,1,3.32-3.82A.07.07,0,0,0,109,137.71Z" fill="#cef4f4"/><path d="M108.59,139.31c-1.76.73-2.36,3.51-2.43,5.19,0,.1.16.15.2.05.76-1.68.67-3.81,2.32-5C108.77,139.45,108.72,139.25,108.59,139.31Z" fill="#cef4f4"/><path d="M104.12,147.75a.38.38,0,0,0,.11.51.52.52,0,0,0,.12.18c.88.91,2.74,1.25,3.9,1.67a38.76,38.76,0,0,0,6.26,1.75c3,.56,6.21-.11,6.35-3.7C121.14,140.64,106.42,143.18,104.12,147.75Z" fill="#acdfe5"/><path d="M117.88,145.52c-3.18-1.82-9.15-1.28-11.78,1.41-.11.12,0,.32.18.23,3.66-2.21,7.43-2.35,11.5-1.39A.14.14,0,0,0,117.88,145.52Z" fill="#cef4f4"/><path d="M108.32,148a16.94,16.94,0,0,0-9-6.28c-2.17-.54-4.67.12-5.57,2.34a6.32,6.32,0,0,0-.45,2.22s0,.07,0,.11c-.81,2.84,2.82,5.91,4.32,7.81,2.92,3.72,13,10,15.19,2.31C113.64,153.65,109.89,150,108.32,148Z" fill="#fdda9b"/><path d="M105.52,145.05a16.59,16.59,0,0,0-3.25-2.2,15,15,0,0,1-2.89,6,20,20,0,0,1-3.62,3.2c.7.8,1.39,1.52,1.86,2.12a11.26,11.26,0,0,0,.9,1C102,153.34,104.78,149.16,105.52,145.05Z" fill="#603635"/><circle cx="98.11" cy="146.09" r="1.61" fill="#603635"/><path d="M97.41,145.64a.44.44,0,0,0,0,.87A.44.44,0,0,0,97.41,145.64Z" fill="#fff"/><path d="M34.68,106.6c-2.85-.74-5.1,2.92-5.95,5A17.05,17.05,0,0,0,28,122.8a.53.53,0,0,0,.27.7c.09.22.16.44.26.65a.37.37,0,0,0,.69-.19c0-.31,0-.62,0-.93,2.92-3.26,6.11-5.81,7.79-10C38,110.43,37.79,107.41,34.68,106.6Z" fill="#cef4f4"/><path d="M32.11,108.93c-2.68,1.76-4.42,6.06-4.19,9.17,0,.06.1.08.11,0a15.74,15.74,0,0,1,4.22-9C32.34,109,32.22,108.85,32.11,108.93Z" fill="#fff"/><path d="M36.06,109.84a0,0,0,0,0-.06,0c0,2.23-1.42,3.84-2.58,5.61-1.44,2.18-3.4,4-4.69,6.28-.05.08.06.16.13.1a30.78,30.78,0,0,0,5.5-6.84C35.3,113.51,36.84,111.69,36.06,109.84Z" fill="#fff"/><path d="M33.15,113.83c-1.53,2.24-3.9,4.12-5.11,6.54a.15.15,0,0,0,.23.18,21.2,21.2,0,0,0,4.94-6.68C33.23,113.82,33.17,113.79,33.15,113.83Z" fill="#fff"/><path d="M38.23,119.58a1.61,1.61,0,1,0,1.61,1.61A1.62,1.62,0,0,0,38.23,119.58Z" fill="#603635"/><path d="M38.86,121.15a.4.4,0,0,0,0,.79A.4.4,0,0,0,38.86,121.15Z" fill="#fff"/><path d="M29.74,123c0-4.74-1.35-9-4.83-12.33-2.39-2.29-7.69-4.1-9.95-.52-1.83,2.89.32,6.27,2.13,8.6a13.41,13.41,0,0,0,11.33,4.94.75.75,0,0,0,1.29-.31A.46.46,0,0,0,29.74,123Z" fill="#acdfe5"/><path d="M18,109.42c-.06,0-.06.08,0,.1,3.23,1.25,5.76,2.25,8,5.11,1.83,2.39,2.33,5.37,3.33,8.13,0,.09.2.09.19,0C28.77,116.37,24.68,110.27,18,109.42Z" fill="#cef4f4"/><path d="M25.93,123.1c-4.65-2.61-9.24-5.17-10.4-10.85,0,0-.09,0-.1,0-.73,5,6.16,10.14,10.43,11A.09.09,0,0,0,25.93,123.1Z" fill="#cef4f4"/><path d="M27.47,122.69c-2.8-2.1-7.71-3.83-9-7.33a0,0,0,1,0-.09,0c.46,1.81,1.93,2.89,3.32,4A19.3,19.3,0,0,0,24.25,121a26.16,26.16,0,0,0,3.12,1.89C27.52,123,27.57,122.76,27.47,122.69Z" fill="#cef4f4"/><path d="M36.76,121.16c-4.92-2.23-12.15-.11-16.12,2.68-4.73,3.35-5.5,9.66.74,11.32S38,134,41,128.08C43.07,124.06,40.31,121.93,36.76,121.16Z" fill="#fdda9b"/><path d="M36.41,132.62a14.07,14.07,0,0,1-2.63-5.06c-.74-2.39-.6-4.84-.65-7.28a16.22,16.22,0,0,0-3.47.12,15.44,15.44,0,0,0,0,7.28,16.23,16.23,0,0,0,2.93,6.72,20.09,20.09,0,0,0,3.85-1.74Z" fill="#603635"/><path d="M26.19,128.11c-.47-2.13.13-4.67,0-6.93a21.73,21.73,0,0,0-4.36,1.91,24.89,24.89,0,0,0,.33,6.13,13.72,13.72,0,0,0,2.84,6.4,22.38,22.38,0,0,0,4.75-.45C28.69,132.78,26.8,130.85,26.19,128.11Z" fill="#603635"/><path d="M36.22,123.3a1.61,1.61,0,1,0,1.61,1.61A1.62,1.62,0,0,0,36.22,123.3Z" fill="#603635"/><path d="M36.86,124.86a.4.4,0,0,0,0,.8A.4.4,0,0,0,36.86,124.86Z" fill="#fff"/></g></svg>